<svg width="100" height="19" viewBox="0 0 100 19" fill="none" xmlns="http://www.w3.org/2000/svg">
<path d="M8.78347 14.9764C8.78347 16.9139 7.4272 18.3348 5.31206 18.3348H0V6.56428H4.77924C7.0074 6.56428 8.2668 7.83982 8.2668 9.55131C8.2668 10.7461 7.70168 11.618 6.63604 12.1185C8.13763 12.6998 8.78347 13.5555 8.78347 14.9764ZM6.76521 9.76121C6.76521 8.5664 6.07093 7.88826 4.40788 7.88826H1.50159V11.6342H4.40788C6.07093 11.6342 6.76521 10.956 6.76521 9.76121ZM7.28189 14.9925C7.28189 13.8462 6.5876 12.9581 5.16675 12.9581H1.50159V17.0108H5.16675C6.5876 17.0108 7.28189 16.1228 7.28189 14.9925Z" fill="black"/>
<path d="M21.3953 12.6352C21.3953 16.0905 19.1672 18.6254 15.7119 18.6254C12.3212 18.6254 10.0285 16.2196 10.0285 12.5383C10.0285 8.85703 12.3212 6.27365 15.6958 6.27365C19.151 6.27365 21.3953 8.84088 21.3953 12.6352ZM19.8937 12.6029C19.8937 9.63204 18.2468 7.59763 15.6958 7.59763C13.2093 7.59763 11.5301 9.63204 11.5301 12.5383C11.5301 15.4446 13.2093 17.3014 15.7119 17.3014C18.1984 17.3014 19.8937 15.4446 19.8937 12.6029Z" fill="black"/>
<path d="M33.4293 18.3348H32.4767L32.1054 16.7848C30.959 18.0603 29.6834 18.6254 28.085 18.6254C24.9042 18.6254 22.6922 16.1874 22.6922 12.5706C22.6922 9.05078 24.7427 6.27365 28.3433 6.27365C31.0397 6.27365 32.8481 7.74295 33.2679 10.1326H31.734C31.4111 8.61483 30.1194 7.59763 28.3272 7.59763C25.8407 7.59763 24.1938 9.59975 24.1938 12.4899C24.1938 15.3639 25.7438 17.3014 28.4079 17.3014C30.5553 17.3014 32.1054 15.8644 32.1054 13.7654V13.4425H28.5209V12.1185H33.4293V18.3348Z" fill="black"/>
<path d="M38.6232 18.7618C36.84 18.7618 35.4084 17.2297 35.4084 14.6929C35.4084 10.373 38.8995 6.20369 42.5413 6.20369C43.4958 6.20369 44.2493 6.47996 45.0781 7.23345L45.9069 2.9637C46.133 1.88371 45.6306 1.75813 44.3497 1.63255L44.4251 1.25581C45.9069 0.979529 46.8864 0.577671 47.8409 0L47.9162 0.125581L44.6762 16.1497C44.5255 17.0036 44.5506 17.4557 44.7767 17.4557C45.1032 17.4557 45.9571 16.426 46.9869 14.9441L47.3385 15.1953C46.1078 17.1041 44.9525 18.5106 43.973 18.5106C43.2948 18.5106 42.9432 17.9078 43.3451 15.9236L43.6967 14.1906H43.5962C41.9134 17.5059 40.2307 18.7618 38.6232 18.7618ZM37.0911 14.3162C37.0911 16.426 38.0456 17.6566 39.4018 17.6566C40.9841 17.6566 42.3655 15.8985 43.9981 12.4074L44.6511 9.31809C44.3497 8.11251 43.3953 6.95717 42.0139 6.95717C39.5525 6.95717 37.0911 10.6492 37.0911 14.3162Z" fill="black"/>
<path d="M52.1408 18.7618C50.232 18.7618 48.8004 17.2297 48.8004 14.6678C48.8004 10.3478 52.2664 6.20369 55.9082 6.20369C56.8626 6.20369 57.6412 6.47996 58.4701 7.18321C59.0226 6.78136 59.525 6.50508 59.9771 6.20369L60.0524 6.32927L58.0682 16.1497C57.9175 16.9785 57.9426 17.4557 58.1687 17.4557C58.4701 17.4557 59.3743 16.426 60.3789 14.9441L60.7305 15.1953C59.4998 17.1041 58.3696 18.5106 57.365 18.5106C56.6868 18.5106 56.3352 17.8827 56.712 15.8985L57.0887 14.1906H56.9882C55.4561 17.2548 53.7231 18.7618 52.1408 18.7618ZM50.5083 14.2911C50.5083 16.426 51.4627 17.6566 52.7938 17.6566C54.1752 17.6566 55.6068 16.2753 57.4152 12.3823L58.0431 9.31809C57.7668 8.18786 56.9631 6.95717 55.4561 6.95717C52.9194 6.95717 50.5083 10.5739 50.5083 14.2911Z" fill="black"/>
<path d="M64.4026 9.19251C64.6286 8.06228 64.051 7.96182 62.9961 7.83623L63.0714 7.45949C64.3021 7.18321 65.4072 6.78136 66.3868 6.20369L66.4872 6.32927L64.5533 15.4213H64.6035C65.8593 12.4827 67.944 6.20369 71.3598 6.20369C72.716 6.20369 74.0472 7.20833 73.3439 10.5488L72.1384 16.1748C71.9877 16.9534 72.0128 17.3804 72.2891 17.3804C72.6156 17.3804 73.5197 16.3506 74.5997 14.8688L74.9765 15.145C73.6704 17.0287 72.4649 18.4352 71.4351 18.4352C70.6565 18.4352 70.3802 17.6818 70.6063 16.5767L71.6612 11.5283C72.1384 9.36832 72.0881 7.40926 70.6063 7.40926C68.0696 7.40926 65.3821 14.5422 63.9254 18.3348H62.4687L64.4026 9.19251Z" fill="black"/>
<path d="M80.6928 18.7366C78.0807 18.7366 76.3226 16.6269 76.3226 13.9143C76.3226 9.99622 79.7886 6.20369 83.3551 6.20369C86.0174 6.20369 87.8258 8.18786 87.8258 10.9255C87.8258 14.8436 84.2844 18.7366 80.6928 18.7366ZM78.0053 13.8139C78.0053 16.2753 79.236 18.0585 81.17 18.0585C83.7318 18.0585 86.0927 14.7181 86.0927 11.1013C86.0927 8.63995 84.8872 6.90694 82.9532 6.90694C80.3411 6.90694 78.0053 10.1469 78.0053 13.8139Z" fill="black"/>
<path d="M93.1684 18.7618L92.4149 18.6111L91.3098 8.94134C91.2345 8.0874 90.8829 7.48461 89.401 7.48461L89.4512 6.98229L92.4903 6.20369L92.6912 6.40461L93.8214 17.3301H93.9219C95.5796 15.4967 98.4177 11.6288 98.4177 9.36832C98.4177 8.16274 97.7144 7.38414 96.2075 7.38414L96.2326 6.85671L100 6.20369C100 6.63066 99.9749 7.0074 99.9247 7.35903C99.6233 10.6241 97.0865 14.5925 93.1684 18.7618Z" fill="black"/>
</svg>
